<svg xmlns="http://www.w3.org/2000/svg" width="24" height="24" viewBox="0 0 24 24" ><path d="M20,6.5a3,3 0,0 1,2.59 -3A0.5,0.5 0,0 0,23 3V2.5a0.5,0.5 0,0 0,-0.5 -0.5H5.69A4.63,4.63 0,0 0,1 6.06,4.51 4.51,0 0,0 5.5,11h17a0.5,0.5 0,0 0,0.5 -0.5V10a0.5,0.5 0,0 0,-0.41 -0.5A3,3 0,0 1,20 6.5Z" fill="#2f45a6" /><path d="M4,17.5a3,3 0,0 1,-2.59 3A0.5,0.5 0,0 0,1 21v0.53a0.5,0.5 0,0 0,0.5 0.5H18.31A4.63,4.63 0,0 0,23 17.94,4.51 4.51,0 0,0 18.5,13H1.5a0.5,0.5 0,0 0,-0.5 0.5V14a0.5,0.5 0,0 0,0.41 0.5A3,3 0,0 1,4 17.5Z" fill="#2f45a6" /></svg>